<?xml version="1.0" encoding="UTF-8"?>
<svg width="1024" height="1024" viewBox="0 0 1024 1024" xmlns="http://www.w3.org/2000/svg">
  
  <rect width="1024" height="1024" fill="#4A90E2"/>
  <g transform="translate(512, 512)">
    <path d="M 179.2,-281.6 L -179.2,-281.6 C -256,-281.6 -307.2,-230.4 -307.2,-153.6 C -307.2,-76.8 -256,-25.6 -179.2,-25.6 L 179.2,-25.6 C 230.4,-25.6 256,0 256,51.2 C 256,102.4 230.4,128 179.2,128 L -179.2,128 L -179.2,230.4 L 179.2,230.4 C 256,230.4 307.2,179.2 307.2,102.4 C 307.2,25.6 256,-25.6 179.2,-25.6 L -179.2,-25.6 C -230.4,-25.6 -256,-51.2 -256,-102.4 C -256,-153.6 -230.4,-179.2 -179.2,-179.2 L 179.2,-179.2 Z" 
          fill="#FFFFFF"/>
  </g>
</svg>